<svg xmlns="http://www.w3.org/2000/svg" version="1.1" xmlns:xlink="http://www.w3.org/1999/xlink" xmlns:svgjs="http://svgjs.dev/svgjs" width="1920" height="1080" preserveAspectRatio="none" viewBox="0 0 1920 1080">
    <g mask="url(&quot;#SvgjsMask1516&quot;)" fill="none">
        <rect width="1920" height="1080" x="0" y="0" fill="rgba(0, 0, 0, 1)"></rect>
        <path d="M34 1080L1114 0L1919.5 0L839.5 1080z" fill="url(&quot;#SvgjsLinearGradient1517&quot;)"></path>
        <path d="M741.6 1080L1821.6 0L2055.6 0L975.6 1080z" fill="url(&quot;#SvgjsLinearGradient1517&quot;)"></path>
        <path d="M1900 1080L820 0L628 0L1708 1080z" fill="url(&quot;#SvgjsLinearGradient1518&quot;)"></path>
        <path d="M1284.4 1080L204.4000000000001 0L-149.5999999999999 0L930.4000000000001 1080z" fill="url(&quot;#SvgjsLinearGradient1518&quot;)"></path>
        <path d="M1340.8158641009259 1080L1920 500.815864100926L1920 1080z" fill="url(&quot;#SvgjsLinearGradient1517&quot;)"></path>
        <path d="M0 1080L579.184135899074 1080L 0 500.815864100926z" fill="url(&quot;#SvgjsLinearGradient1518&quot;)"></path>
    </g>
    <defs>
        <mask id="SvgjsMask1516">
            <rect width="1920" height="1080" fill="#ffffff"></rect>
        </mask>
        <linearGradient x1="0%" y1="100%" x2="100%" y2="0%" id="SvgjsLinearGradient1517">
            <stop stop-color="rgba(212, 249, 47, 0.35)" offset="0"></stop>
            <stop stop-opacity="0" stop-color="rgba(212, 249, 47, 0.35)" offset="0.66"></stop>
        </linearGradient>
        <linearGradient x1="100%" y1="100%" x2="0%" y2="0%" id="SvgjsLinearGradient1518">
            <stop stop-color="rgba(212, 249, 47, 0.35)" offset="0"></stop>
            <stop stop-opacity="0" stop-color="rgba(212, 249, 47, 0.35)" offset="0.66"></stop>
        </linearGradient>
    </defs>
</svg>