<svg xmlns="http://www.w3.org/2000/svg" version="1.1" xmlns:xlink="http://www.w3.org/1999/xlink" xmlns:svgjs="http://svgjs.dev/svgjs" width="1920" height="1080" preserveAspectRatio="none" viewBox="0 0 1920 1080"><g mask="url(&quot;#SvgjsMask1032&quot;)" fill="none"><rect width="1920" height="1080" x="0" y="0" fill="rgba(0, 0, 0, 1)"></rect><path d="M168.66 599.46L231.02 635.46L231.02 707.46L168.66 743.46L106.31 707.46L106.31 635.46zM231.02 707.46L293.37 743.46L293.37 815.46L231.02 851.46L168.66 815.46L168.66 743.46zM293.37 -48.54L355.73 -12.54L355.73 59.46L293.37 95.46L231.02 59.46L231.02 -12.54zM355.73 491.46L418.08 527.46L418.08 599.46L355.73 635.46L293.37 599.46L293.37 527.46zM355.73 923.46L418.08 959.46L418.08 1031.46L355.73 1067.46L293.37 1031.46L293.37 959.46zM418.08 167.46L480.44 203.46L480.44 275.46L418.08 311.46L355.73 275.46L355.73 203.46zM418.08 383.46L480.44 419.46L480.44 491.46L418.08 527.46L355.73 491.46L355.73 419.46zM480.44 491.46L542.79 527.46L542.79 599.46L480.44 635.46L418.08 599.46L418.08 527.46zM605.15 59.46L667.51 95.46L667.51 167.46L605.15 203.46L542.79 167.46L542.79 95.46zM542.79 167.46L605.15 203.46L605.15 275.46L542.79 311.46L480.44 275.46L480.44 203.46zM605.15 707.46L667.51 743.46L667.51 815.46L605.15 851.46L542.79 815.46L542.79 743.46zM729.86 275.46L792.22 311.46L792.22 383.46L729.86 419.46L667.51 383.46L667.51 311.46zM729.86 923.46L792.22 959.46L792.22 1031.46L729.86 1067.46L667.51 1031.46L667.51 959.46zM854.57 491.46L916.93 527.46L916.93 599.46L854.57 635.46L792.22 599.46L792.22 527.46zM792.22 599.46L854.57 635.46L854.57 707.46L792.22 743.46L729.86 707.46L729.86 635.46zM792.22 815.46L854.57 851.46L854.57 923.46L792.22 959.46L729.86 923.46L729.86 851.46zM916.93 599.46L979.28 635.46L979.28 707.46L916.93 743.46L854.57 707.46L854.57 635.46zM1104 275.46L1166.35 311.46L1166.35 383.46L1104 419.46L1041.64 383.46L1041.64 311.46zM1228.71 275.46L1291.06 311.46L1291.06 383.46L1228.71 419.46L1166.35 383.46L1166.35 311.46zM1166.35 383.46L1228.71 419.46L1228.71 491.46L1166.35 527.46L1104 491.46L1104 419.46zM1291.06 599.46L1353.42 635.46L1353.42 707.46L1291.06 743.46L1228.71 707.46L1228.71 635.46zM1291.06 1031.46L1353.42 1067.46L1353.42 1139.46L1291.06 1175.46L1228.71 1139.46L1228.71 1067.46zM1415.77 -48.54L1478.13 -12.54L1478.13 59.46L1415.77 95.46L1353.42 59.46L1353.42 -12.54zM1478.13 59.46L1540.48 95.46L1540.48 167.46L1478.13 203.46L1415.77 167.46L1415.77 95.46zM1415.77 599.46L1478.13 635.46L1478.13 707.46L1415.77 743.46L1353.42 707.46L1353.42 635.46zM1602.84 59.46L1665.2 95.46L1665.2 167.46L1602.84 203.46L1540.48 167.46L1540.48 95.46zM1540.48 383.46L1602.84 419.46L1602.84 491.46L1540.48 527.46L1478.13 491.46L1478.13 419.46zM1540.48 815.46L1602.84 851.46L1602.84 923.46L1540.48 959.46L1478.13 923.46L1478.13 851.46zM1602.84 923.46L1665.2 959.46L1665.2 1031.46L1602.84 1067.46L1540.48 1031.46L1540.48 959.46zM1665.2 815.46L1727.55 851.46L1727.55 923.46L1665.2 959.46L1602.84 923.46L1602.84 851.46zM1665.2 1031.46L1727.55 1067.46L1727.55 1139.46L1665.2 1175.46L1602.84 1139.46L1602.84 1067.46zM1789.91 -48.54L1852.26 -12.54L1852.26 59.46L1789.91 95.46L1727.55 59.46L1727.55 -12.54zM1852.26 491.46L1914.62 527.46L1914.62 599.46L1852.26 635.46L1789.91 599.46L1789.91 527.46zM1789.91 599.46L1852.26 635.46L1852.26 707.46L1789.91 743.46L1727.55 707.46L1727.55 635.46zM1852.26 707.46L1914.62 743.46L1914.62 815.46L1852.26 851.46L1789.91 815.46L1789.91 743.46zM1789.91 815.46L1852.26 851.46L1852.26 923.46L1789.91 959.46L1727.55 923.46L1727.55 851.46zM1976.97 275.46L2039.33 311.46L2039.33 383.46L1976.97 419.46L1914.62 383.46L1914.62 311.46z" stroke="rgba(212, 249, 47, 0.52)" stroke-width="2"></path><path d="M161.46 599.46 a7.2 7.2 0 1 0 14.4 0 a7.2 7.2 0 1 0 -14.4 0zM223.82 635.46 a7.2 7.2 0 1 0 14.4 0 a7.2 7.2 0 1 0 -14.4 0zM223.82 707.46 a7.2 7.2 0 1 0 14.4 0 a7.2 7.2 0 1 0 -14.4 0zM161.46 743.46 a7.2 7.2 0 1 0 14.4 0 a7.2 7.2 0 1 0 -14.4 0zM99.11 707.46 a7.2 7.2 0 1 0 14.4 0 a7.2 7.2 0 1 0 -14.4 0zM99.11 635.46 a7.2 7.2 0 1 0 14.4 0 a7.2 7.2 0 1 0 -14.4 0zM286.17 743.46 a7.2 7.2 0 1 0 14.4 0 a7.2 7.2 0 1 0 -14.4 0zM286.17 815.46 a7.2 7.2 0 1 0 14.4 0 a7.2 7.2 0 1 0 -14.4 0zM223.82 851.46 a7.2 7.2 0 1 0 14.4 0 a7.2 7.2 0 1 0 -14.4 0zM161.46 815.46 a7.2 7.2 0 1 0 14.4 0 a7.2 7.2 0 1 0 -14.4 0zM286.17 -48.54 a7.2 7.2 0 1 0 14.4 0 a7.2 7.2 0 1 0 -14.4 0zM348.53 -12.54 a7.2 7.2 0 1 0 14.4 0 a7.2 7.2 0 1 0 -14.4 0zM348.53 59.46 a7.2 7.2 0 1 0 14.4 0 a7.2 7.2 0 1 0 -14.4 0zM286.17 95.46 a7.2 7.2 0 1 0 14.4 0 a7.2 7.2 0 1 0 -14.4 0zM223.82 59.46 a7.2 7.2 0 1 0 14.4 0 a7.2 7.2 0 1 0 -14.4 0zM223.82 -12.54 a7.2 7.2 0 1 0 14.4 0 a7.2 7.2 0 1 0 -14.4 0zM348.53 491.46 a7.2 7.2 0 1 0 14.4 0 a7.2 7.2 0 1 0 -14.4 0zM410.88 527.46 a7.2 7.2 0 1 0 14.4 0 a7.2 7.2 0 1 0 -14.4 0zM410.88 599.46 a7.2 7.2 0 1 0 14.4 0 a7.2 7.2 0 1 0 -14.4 0zM348.53 635.46 a7.2 7.2 0 1 0 14.4 0 a7.2 7.2 0 1 0 -14.4 0zM286.17 599.46 a7.2 7.2 0 1 0 14.4 0 a7.2 7.2 0 1 0 -14.4 0zM286.17 527.46 a7.2 7.2 0 1 0 14.4 0 a7.2 7.2 0 1 0 -14.4 0zM348.53 923.46 a7.2 7.2 0 1 0 14.4 0 a7.2 7.2 0 1 0 -14.4 0zM410.88 959.46 a7.2 7.2 0 1 0 14.4 0 a7.2 7.2 0 1 0 -14.4 0zM410.88 1031.46 a7.2 7.2 0 1 0 14.4 0 a7.2 7.2 0 1 0 -14.4 0zM348.53 1067.46 a7.2 7.2 0 1 0 14.4 0 a7.2 7.2 0 1 0 -14.4 0zM286.17 1031.46 a7.2 7.2 0 1 0 14.4 0 a7.2 7.2 0 1 0 -14.4 0zM286.17 959.46 a7.2 7.2 0 1 0 14.4 0 a7.2 7.2 0 1 0 -14.4 0zM410.88 167.46 a7.2 7.2 0 1 0 14.4 0 a7.2 7.2 0 1 0 -14.4 0zM473.24 203.46 a7.2 7.2 0 1 0 14.4 0 a7.2 7.2 0 1 0 -14.4 0zM473.24 275.46 a7.2 7.2 0 1 0 14.4 0 a7.2 7.2 0 1 0 -14.4 0zM410.88 311.46 a7.2 7.2 0 1 0 14.4 0 a7.2 7.2 0 1 0 -14.4 0zM348.53 275.46 a7.2 7.2 0 1 0 14.4 0 a7.2 7.2 0 1 0 -14.4 0zM348.53 203.46 a7.2 7.2 0 1 0 14.4 0 a7.2 7.2 0 1 0 -14.4 0zM410.88 383.46 a7.2 7.2 0 1 0 14.4 0 a7.2 7.2 0 1 0 -14.4 0zM473.24 419.46 a7.2 7.2 0 1 0 14.4 0 a7.2 7.2 0 1 0 -14.4 0zM473.24 491.46 a7.2 7.2 0 1 0 14.4 0 a7.2 7.2 0 1 0 -14.4 0zM348.53 419.46 a7.2 7.2 0 1 0 14.4 0 a7.2 7.2 0 1 0 -14.4 0zM535.59 527.46 a7.2 7.2 0 1 0 14.4 0 a7.2 7.2 0 1 0 -14.4 0zM535.59 599.46 a7.2 7.2 0 1 0 14.4 0 a7.2 7.2 0 1 0 -14.4 0zM473.24 635.46 a7.2 7.2 0 1 0 14.4 0 a7.2 7.2 0 1 0 -14.4 0zM597.95 59.46 a7.2 7.2 0 1 0 14.4 0 a7.2 7.2 0 1 0 -14.4 0zM660.31 95.46 a7.2 7.2 0 1 0 14.4 0 a7.2 7.2 0 1 0 -14.4 0zM660.31 167.46 a7.2 7.2 0 1 0 14.4 0 a7.2 7.2 0 1 0 -14.4 0zM597.95 203.46 a7.2 7.2 0 1 0 14.4 0 a7.2 7.2 0 1 0 -14.4 0zM535.59 167.46 a7.2 7.2 0 1 0 14.4 0 a7.2 7.2 0 1 0 -14.4 0zM535.59 95.46 a7.2 7.2 0 1 0 14.4 0 a7.2 7.2 0 1 0 -14.4 0zM597.95 275.46 a7.2 7.2 0 1 0 14.4 0 a7.2 7.2 0 1 0 -14.4 0zM535.59 311.46 a7.2 7.2 0 1 0 14.4 0 a7.2 7.2 0 1 0 -14.4 0zM597.95 707.46 a7.2 7.2 0 1 0 14.4 0 a7.2 7.2 0 1 0 -14.4 0zM660.31 743.46 a7.2 7.2 0 1 0 14.4 0 a7.2 7.2 0 1 0 -14.4 0zM660.31 815.46 a7.2 7.2 0 1 0 14.4 0 a7.2 7.2 0 1 0 -14.4 0zM597.95 851.46 a7.2 7.2 0 1 0 14.4 0 a7.2 7.2 0 1 0 -14.4 0zM535.59 815.46 a7.2 7.2 0 1 0 14.4 0 a7.2 7.2 0 1 0 -14.4 0zM535.59 743.46 a7.2 7.2 0 1 0 14.4 0 a7.2 7.2 0 1 0 -14.4 0zM722.66 275.46 a7.2 7.2 0 1 0 14.4 0 a7.2 7.2 0 1 0 -14.4 0zM785.02 311.46 a7.2 7.2 0 1 0 14.4 0 a7.2 7.2 0 1 0 -14.4 0zM785.02 383.46 a7.2 7.2 0 1 0 14.4 0 a7.2 7.2 0 1 0 -14.4 0zM722.66 419.46 a7.2 7.2 0 1 0 14.4 0 a7.2 7.2 0 1 0 -14.4 0zM660.31 383.46 a7.2 7.2 0 1 0 14.4 0 a7.2 7.2 0 1 0 -14.4 0zM660.31 311.46 a7.2 7.2 0 1 0 14.4 0 a7.2 7.2 0 1 0 -14.4 0zM722.66 923.46 a7.2 7.2 0 1 0 14.4 0 a7.2 7.2 0 1 0 -14.4 0zM785.02 959.46 a7.2 7.2 0 1 0 14.4 0 a7.2 7.2 0 1 0 -14.4 0zM785.02 1031.46 a7.2 7.2 0 1 0 14.4 0 a7.2 7.2 0 1 0 -14.4 0zM722.66 1067.46 a7.2 7.2 0 1 0 14.4 0 a7.2 7.2 0 1 0 -14.4 0zM660.31 1031.46 a7.2 7.2 0 1 0 14.4 0 a7.2 7.2 0 1 0 -14.4 0zM660.31 959.46 a7.2 7.2 0 1 0 14.4 0 a7.2 7.2 0 1 0 -14.4 0zM847.37 491.46 a7.2 7.2 0 1 0 14.4 0 a7.2 7.2 0 1 0 -14.4 0zM909.73 527.46 a7.2 7.2 0 1 0 14.4 0 a7.2 7.2 0 1 0 -14.4 0zM909.73 599.46 a7.2 7.2 0 1 0 14.4 0 a7.2 7.2 0 1 0 -14.4 0zM847.37 635.46 a7.2 7.2 0 1 0 14.4 0 a7.2 7.2 0 1 0 -14.4 0zM785.02 599.46 a7.2 7.2 0 1 0 14.4 0 a7.2 7.2 0 1 0 -14.4 0zM785.02 527.46 a7.2 7.2 0 1 0 14.4 0 a7.2 7.2 0 1 0 -14.4 0zM847.37 707.46 a7.2 7.2 0 1 0 14.4 0 a7.2 7.2 0 1 0 -14.4 0zM785.02 743.46 a7.2 7.2 0 1 0 14.4 0 a7.2 7.2 0 1 0 -14.4 0zM722.66 707.46 a7.2 7.2 0 1 0 14.4 0 a7.2 7.2 0 1 0 -14.4 0zM722.66 635.46 a7.2 7.2 0 1 0 14.4 0 a7.2 7.2 0 1 0 -14.4 0zM785.02 815.46 a7.2 7.2 0 1 0 14.4 0 a7.2 7.2 0 1 0 -14.4 0zM847.37 851.46 a7.2 7.2 0 1 0 14.4 0 a7.2 7.2 0 1 0 -14.4 0zM847.37 923.46 a7.2 7.2 0 1 0 14.4 0 a7.2 7.2 0 1 0 -14.4 0zM722.66 851.46 a7.2 7.2 0 1 0 14.4 0 a7.2 7.2 0 1 0 -14.4 0zM972.08 635.46 a7.2 7.2 0 1 0 14.4 0 a7.2 7.2 0 1 0 -14.4 0zM972.08 707.46 a7.2 7.2 0 1 0 14.4 0 a7.2 7.2 0 1 0 -14.4 0zM909.73 743.46 a7.2 7.2 0 1 0 14.4 0 a7.2 7.2 0 1 0 -14.4 0zM1096.8 275.46 a7.2 7.2 0 1 0 14.4 0 a7.2 7.2 0 1 0 -14.4 0zM1159.15 311.46 a7.2 7.2 0 1 0 14.4 0 a7.2 7.2 0 1 0 -14.4 0zM1159.15 383.46 a7.2 7.2 0 1 0 14.4 0 a7.2 7.2 0 1 0 -14.4 0zM1096.8 419.46 a7.2 7.2 0 1 0 14.4 0 a7.2 7.2 0 1 0 -14.4 0zM1034.44 383.46 a7.2 7.2 0 1 0 14.4 0 a7.2 7.2 0 1 0 -14.4 0zM1034.44 311.46 a7.2 7.2 0 1 0 14.4 0 a7.2 7.2 0 1 0 -14.4 0zM1221.51 275.46 a7.2 7.2 0 1 0 14.4 0 a7.2 7.2 0 1 0 -14.4 0zM1283.86 311.46 a7.2 7.2 0 1 0 14.4 0 a7.2 7.2 0 1 0 -14.4 0zM1283.86 383.46 a7.2 7.2 0 1 0 14.4 0 a7.2 7.2 0 1 0 -14.4 0zM1221.51 419.46 a7.2 7.2 0 1 0 14.4 0 a7.2 7.2 0 1 0 -14.4 0zM1221.51 491.46 a7.2 7.2 0 1 0 14.4 0 a7.2 7.2 0 1 0 -14.4 0zM1159.15 527.46 a7.2 7.2 0 1 0 14.4 0 a7.2 7.2 0 1 0 -14.4 0zM1096.8 491.46 a7.2 7.2 0 1 0 14.4 0 a7.2 7.2 0 1 0 -14.4 0zM1283.86 599.46 a7.2 7.2 0 1 0 14.4 0 a7.2 7.2 0 1 0 -14.4 0zM1346.22 635.46 a7.2 7.2 0 1 0 14.4 0 a7.2 7.2 0 1 0 -14.4 0zM1346.22 707.46 a7.2 7.2 0 1 0 14.4 0 a7.2 7.2 0 1 0 -14.4 0zM1283.86 743.46 a7.2 7.2 0 1 0 14.4 0 a7.2 7.2 0 1 0 -14.4 0zM1221.51 707.46 a7.2 7.2 0 1 0 14.4 0 a7.2 7.2 0 1 0 -14.4 0zM1221.51 635.46 a7.2 7.2 0 1 0 14.4 0 a7.2 7.2 0 1 0 -14.4 0zM1283.86 1031.46 a7.2 7.2 0 1 0 14.4 0 a7.2 7.2 0 1 0 -14.4 0zM1346.22 1067.46 a7.2 7.2 0 1 0 14.4 0 a7.2 7.2 0 1 0 -14.4 0zM1346.22 1139.46 a7.2 7.2 0 1 0 14.4 0 a7.2 7.2 0 1 0 -14.4 0zM1283.86 1175.46 a7.2 7.2 0 1 0 14.4 0 a7.2 7.2 0 1 0 -14.4 0zM1221.51 1139.46 a7.2 7.2 0 1 0 14.4 0 a7.2 7.2 0 1 0 -14.4 0zM1221.51 1067.46 a7.2 7.2 0 1 0 14.4 0 a7.2 7.2 0 1 0 -14.4 0zM1408.57 -48.54 a7.2 7.2 0 1 0 14.4 0 a7.2 7.2 0 1 0 -14.4 0zM1470.93 -12.54 a7.2 7.2 0 1 0 14.4 0 a7.2 7.2 0 1 0 -14.4 0zM1470.93 59.46 a7.2 7.2 0 1 0 14.4 0 a7.2 7.2 0 1 0 -14.4 0zM1408.57 95.46 a7.2 7.2 0 1 0 14.4 0 a7.2 7.2 0 1 0 -14.4 0zM1346.22 59.46 a7.2 7.2 0 1 0 14.4 0 a7.2 7.2 0 1 0 -14.4 0zM1346.22 -12.54 a7.2 7.2 0 1 0 14.4 0 a7.2 7.2 0 1 0 -14.4 0zM1533.28 95.46 a7.2 7.2 0 1 0 14.4 0 a7.2 7.2 0 1 0 -14.4 0zM1533.28 167.46 a7.2 7.2 0 1 0 14.4 0 a7.2 7.2 0 1 0 -14.4 0zM1470.93 203.46 a7.2 7.2 0 1 0 14.4 0 a7.2 7.2 0 1 0 -14.4 0zM1408.57 167.46 a7.2 7.2 0 1 0 14.4 0 a7.2 7.2 0 1 0 -14.4 0zM1408.57 599.46 a7.2 7.2 0 1 0 14.4 0 a7.2 7.2 0 1 0 -14.4 0zM1470.93 635.46 a7.2 7.2 0 1 0 14.4 0 a7.2 7.2 0 1 0 -14.4 0zM1470.93 707.46 a7.2 7.2 0 1 0 14.4 0 a7.2 7.2 0 1 0 -14.4 0zM1408.57 743.46 a7.2 7.2 0 1 0 14.4 0 a7.2 7.2 0 1 0 -14.4 0zM1595.64 59.46 a7.2 7.2 0 1 0 14.4 0 a7.2 7.2 0 1 0 -14.4 0zM1658 95.46 a7.2 7.2 0 1 0 14.4 0 a7.2 7.2 0 1 0 -14.4 0zM1658 167.46 a7.2 7.2 0 1 0 14.4 0 a7.2 7.2 0 1 0 -14.4 0zM1595.64 203.46 a7.2 7.2 0 1 0 14.4 0 a7.2 7.2 0 1 0 -14.4 0zM1533.28 383.46 a7.2 7.2 0 1 0 14.4 0 a7.2 7.2 0 1 0 -14.4 0zM1595.64 419.46 a7.2 7.2 0 1 0 14.4 0 a7.2 7.2 0 1 0 -14.4 0zM1595.64 491.46 a7.2 7.2 0 1 0 14.4 0 a7.2 7.2 0 1 0 -14.4 0zM1533.28 527.46 a7.2 7.2 0 1 0 14.4 0 a7.2 7.2 0 1 0 -14.4 0zM1470.93 491.46 a7.2 7.2 0 1 0 14.4 0 a7.2 7.2 0 1 0 -14.4 0zM1470.93 419.46 a7.2 7.2 0 1 0 14.4 0 a7.2 7.2 0 1 0 -14.4 0zM1533.28 815.46 a7.2 7.2 0 1 0 14.4 0 a7.2 7.2 0 1 0 -14.4 0zM1595.64 851.46 a7.2 7.2 0 1 0 14.4 0 a7.2 7.2 0 1 0 -14.4 0zM1595.64 923.46 a7.2 7.2 0 1 0 14.4 0 a7.2 7.2 0 1 0 -14.4 0zM1533.28 959.46 a7.2 7.2 0 1 0 14.4 0 a7.2 7.2 0 1 0 -14.4 0zM1470.93 923.46 a7.2 7.2 0 1 0 14.4 0 a7.2 7.2 0 1 0 -14.4 0zM1470.93 851.46 a7.2 7.2 0 1 0 14.4 0 a7.2 7.2 0 1 0 -14.4 0zM1658 959.46 a7.2 7.2 0 1 0 14.4 0 a7.2 7.2 0 1 0 -14.4 0zM1658 1031.46 a7.2 7.2 0 1 0 14.4 0 a7.2 7.2 0 1 0 -14.4 0zM1595.64 1067.46 a7.2 7.2 0 1 0 14.4 0 a7.2 7.2 0 1 0 -14.4 0zM1533.28 1031.46 a7.2 7.2 0 1 0 14.4 0 a7.2 7.2 0 1 0 -14.4 0zM1658 815.46 a7.2 7.2 0 1 0 14.4 0 a7.2 7.2 0 1 0 -14.4 0zM1720.35 851.46 a7.2 7.2 0 1 0 14.4 0 a7.2 7.2 0 1 0 -14.4 0zM1720.35 923.46 a7.2 7.2 0 1 0 14.4 0 a7.2 7.2 0 1 0 -14.4 0zM1720.35 1067.46 a7.2 7.2 0 1 0 14.4 0 a7.2 7.2 0 1 0 -14.4 0zM1720.35 1139.46 a7.2 7.2 0 1 0 14.4 0 a7.2 7.2 0 1 0 -14.4 0zM1658 1175.46 a7.2 7.2 0 1 0 14.4 0 a7.2 7.2 0 1 0 -14.4 0zM1595.64 1139.46 a7.2 7.2 0 1 0 14.4 0 a7.2 7.2 0 1 0 -14.4 0zM1782.71 -48.54 a7.2 7.2 0 1 0 14.4 0 a7.2 7.2 0 1 0 -14.4 0zM1845.06 -12.54 a7.2 7.2 0 1 0 14.4 0 a7.2 7.2 0 1 0 -14.4 0zM1845.06 59.46 a7.2 7.2 0 1 0 14.4 0 a7.2 7.2 0 1 0 -14.4 0zM1782.71 95.46 a7.2 7.2 0 1 0 14.4 0 a7.2 7.2 0 1 0 -14.4 0zM1720.35 59.46 a7.2 7.2 0 1 0 14.4 0 a7.2 7.2 0 1 0 -14.4 0zM1720.35 -12.54 a7.2 7.2 0 1 0 14.4 0 a7.2 7.2 0 1 0 -14.4 0zM1845.06 491.46 a7.2 7.2 0 1 0 14.4 0 a7.2 7.2 0 1 0 -14.4 0zM1907.42 527.46 a7.2 7.2 0 1 0 14.4 0 a7.2 7.2 0 1 0 -14.4 0zM1907.42 599.46 a7.2 7.2 0 1 0 14.4 0 a7.2 7.2 0 1 0 -14.4 0zM1845.06 635.46 a7.2 7.2 0 1 0 14.4 0 a7.2 7.2 0 1 0 -14.4 0zM1782.71 599.46 a7.2 7.2 0 1 0 14.4 0 a7.2 7.2 0 1 0 -14.4 0zM1782.71 527.46 a7.2 7.2 0 1 0 14.4 0 a7.2 7.2 0 1 0 -14.4 0zM1845.06 707.46 a7.2 7.2 0 1 0 14.4 0 a7.2 7.2 0 1 0 -14.4 0zM1782.71 743.46 a7.2 7.2 0 1 0 14.4 0 a7.2 7.2 0 1 0 -14.4 0zM1720.35 707.46 a7.2 7.2 0 1 0 14.4 0 a7.2 7.2 0 1 0 -14.4 0zM1720.35 635.46 a7.2 7.2 0 1 0 14.4 0 a7.2 7.2 0 1 0 -14.4 0zM1907.42 743.46 a7.2 7.2 0 1 0 14.4 0 a7.2 7.2 0 1 0 -14.4 0zM1907.42 815.46 a7.2 7.2 0 1 0 14.4 0 a7.2 7.2 0 1 0 -14.4 0zM1845.06 851.46 a7.2 7.2 0 1 0 14.4 0 a7.2 7.2 0 1 0 -14.4 0zM1782.71 815.46 a7.2 7.2 0 1 0 14.4 0 a7.2 7.2 0 1 0 -14.4 0zM1845.06 923.46 a7.2 7.2 0 1 0 14.4 0 a7.2 7.2 0 1 0 -14.4 0zM1782.71 959.46 a7.2 7.2 0 1 0 14.4 0 a7.2 7.2 0 1 0 -14.4 0zM1969.77 275.46 a7.2 7.2 0 1 0 14.4 0 a7.2 7.2 0 1 0 -14.4 0zM2032.13 311.46 a7.2 7.2 0 1 0 14.4 0 a7.2 7.2 0 1 0 -14.4 0zM2032.13 383.46 a7.2 7.2 0 1 0 14.4 0 a7.2 7.2 0 1 0 -14.4 0zM1969.77 419.46 a7.2 7.2 0 1 0 14.4 0 a7.2 7.2 0 1 0 -14.4 0zM1907.42 383.46 a7.2 7.2 0 1 0 14.4 0 a7.2 7.2 0 1 0 -14.4 0zM1907.42 311.46 a7.2 7.2 0 1 0 14.4 0 a7.2 7.2 0 1 0 -14.4 0z" fill="rgba(212, 249, 47, 0.52)"></path><path d="M16.83 -2.77L99.1 44.73L99.1 139.73L16.83 187.23L-65.44 139.73L-65.44 44.73zM99.1 139.73L181.38 187.23L181.38 282.23L99.1 329.73L16.83 282.23L16.83 187.23zM16.83 852.23L99.1 899.73L99.1 994.73L16.83 1042.23L-65.44 994.73L-65.44 899.73zM99.1 994.73L181.38 1042.23L181.38 1137.23L99.1 1184.73L16.83 1137.23L16.83 1042.23zM16.83 1137.23L99.1 1184.73L99.1 1279.73L16.83 1327.23L-65.44 1279.73L-65.44 1184.73zM181.38 -2.77L263.65 44.73L263.65 139.73L181.38 187.23L99.1 139.73L99.1 44.73zM181.38 282.23L263.65 329.73L263.65 424.73L181.38 472.23L99.1 424.73L99.1 329.73zM263.65 424.73L345.93 472.23L345.93 567.23L263.65 614.73L181.38 567.23L181.38 472.23zM263.65 994.73L345.93 1042.23L345.93 1137.23L263.65 1184.73L181.38 1137.23L181.38 1042.23zM345.93 -2.77L428.2 44.73L428.2 139.73L345.93 187.23L263.65 139.73L263.65 44.73zM428.2 424.73L510.48 472.23L510.48 567.23L428.2 614.73L345.93 567.23L345.93 472.23zM428.2 709.73L510.48 757.23L510.48 852.23L428.2 899.73L345.93 852.23L345.93 757.23zM345.93 1137.23L428.2 1184.73L428.2 1279.73L345.93 1327.23L263.65 1279.73L263.65 1184.73zM510.48 567.23L592.75 614.73L592.75 709.73L510.48 757.23L428.2 709.73L428.2 614.73zM592.75 709.73L675.03 757.23L675.03 852.23L592.75 899.73L510.48 852.23L510.48 757.23zM510.48 852.23L592.75 899.73L592.75 994.73L510.48 1042.23L428.2 994.73L428.2 899.73zM757.3 709.73L839.58 757.23L839.58 852.23L757.3 899.73L675.03 852.23L675.03 757.23zM675.03 1137.23L757.3 1184.73L757.3 1279.73L675.03 1327.23L592.75 1279.73L592.75 1184.73zM839.58 852.23L921.85 899.73L921.85 994.73L839.58 1042.23L757.3 994.73L757.3 899.73zM839.58 1137.23L921.85 1184.73L921.85 1279.73L839.58 1327.23L757.3 1279.73L757.3 1184.73zM1004.13 -2.77L1086.4 44.73L1086.4 139.73L1004.13 187.23L921.85 139.73L921.85 44.73zM1086.4 424.73L1168.68 472.23L1168.68 567.23L1086.4 614.73L1004.13 567.23L1004.13 472.23zM1250.95 424.73L1333.23 472.23L1333.23 567.23L1250.95 614.73L1168.68 567.23L1168.68 472.23zM1168.68 567.23L1250.95 614.73L1250.95 709.73L1168.68 757.23L1086.4 709.73L1086.4 614.73zM1250.95 709.73L1333.23 757.23L1333.23 852.23L1250.95 899.73L1168.68 852.23L1168.68 757.23zM1250.95 994.73L1333.23 1042.23L1333.23 1137.23L1250.95 1184.73L1168.68 1137.23L1168.68 1042.23zM1333.23 -2.77L1415.5 44.73L1415.5 139.73L1333.23 187.23L1250.95 139.73L1250.95 44.73zM1333.23 282.23L1415.5 329.73L1415.5 424.73L1333.23 472.23L1250.95 424.73L1250.95 329.73zM1333.23 567.23L1415.5 614.73L1415.5 709.73L1333.23 757.23L1250.95 709.73L1250.95 614.73zM1415.5 709.73L1497.78 757.23L1497.78 852.23L1415.5 899.73L1333.23 852.23L1333.23 757.23zM1333.23 852.23L1415.5 899.73L1415.5 994.73L1333.23 1042.23L1250.95 994.73L1250.95 899.73zM1497.78 -2.77L1580.05 44.73L1580.05 139.73L1497.78 187.23L1415.5 139.73L1415.5 44.73zM1580.05 139.73L1662.33 187.23L1662.33 282.23L1580.05 329.73L1497.78 282.23L1497.78 187.23zM1497.78 282.23L1580.05 329.73L1580.05 424.73L1497.78 472.23L1415.5 424.73L1415.5 329.73zM1580.05 709.73L1662.33 757.23L1662.33 852.23L1580.05 899.73L1497.78 852.23L1497.78 757.23zM1580.05 994.73L1662.33 1042.23L1662.33 1137.23L1580.05 1184.73L1497.78 1137.23L1497.78 1042.23zM1744.6 424.73L1826.87 472.23L1826.87 567.23L1744.6 614.73L1662.32 567.23L1662.32 472.23zM1662.32 852.23L1744.6 899.73L1744.6 994.73L1662.32 1042.23L1580.05 994.73L1580.05 899.73zM1826.87 -2.77L1909.15 44.73L1909.15 139.73L1826.87 187.23L1744.6 139.73L1744.6 44.73zM1909.15 139.73L1991.42 187.23L1991.42 282.23L1909.15 329.73L1826.87 282.23L1826.87 187.23zM1826.87 282.23L1909.15 329.73L1909.15 424.73L1826.87 472.23L1744.6 424.73L1744.6 329.73zM1909.15 424.73L1991.42 472.23L1991.42 567.23L1909.15 614.73L1826.87 567.23L1826.87 472.23zM1909.15 994.73L1991.42 1042.23L1991.42 1137.23L1909.15 1184.73L1826.87 1137.23L1826.87 1042.23zM1826.87 1137.23L1909.15 1184.73L1909.15 1279.73L1826.87 1327.23L1744.6 1279.73L1744.6 1184.73z" stroke="rgba(212, 249, 47, 0.35)" stroke-width="2"></path></g><defs><mask id="SvgjsMask1032"><rect width="1920" height="1080" fill="#ffffff"></rect></mask></defs></svg>